<svg width="63" height="72" viewBox="0 0 63 72" fill="none" xmlns="http://www.w3.org/2000/svg">
<path d="M43 15L53 50M33 15V50M23 20V50M13 10V50" stroke="#6D5253" stroke-width="2" stroke-linecap="round" stroke-linejoin="round"/>
<path d="M9.00604 69V58.8182H13.0827C13.8318 58.8182 14.4566 58.9292 14.957 59.1513C15.4575 59.3733 15.8337 59.6816 16.0856 60.076C16.3375 60.4671 16.4634 60.9179 16.4634 61.4283C16.4634 61.826 16.3839 62.1757 16.2248 62.4773C16.0657 62.7756 15.8469 63.0208 15.5685 63.2131C15.2934 63.402 14.9786 63.5362 14.6239 63.6158V63.7152C15.0117 63.7318 15.3746 63.8411 15.7127 64.0433C16.0541 64.2455 16.3308 64.5289 16.543 64.8935C16.7551 65.2547 16.8612 65.6856 16.8612 66.1861C16.8612 66.7263 16.7269 67.2086 16.4585 67.6328C16.1933 68.0537 15.8005 68.3868 15.2802 68.6321C14.7598 68.8774 14.1185 69 13.3562 69H9.00604ZM11.1587 67.2401H12.9137C13.5136 67.2401 13.9511 67.1257 14.2262 66.897C14.5013 66.665 14.6388 66.3568 14.6388 65.9723C14.6388 65.6906 14.5709 65.442 14.435 65.2266C14.2991 65.0111 14.1052 64.8421 13.8533 64.7195C13.6048 64.5968 13.3081 64.5355 12.9634 64.5355H11.1587V67.2401ZM11.1587 63.0788H12.7546C13.0496 63.0788 13.3114 63.0275 13.5401 62.9247C13.7721 62.8187 13.9544 62.6695 14.087 62.4773C14.2229 62.285 14.2908 62.0547 14.2908 61.7862C14.2908 61.4183 14.1599 61.1217 13.8981 60.8963C13.6396 60.6709 13.2717 60.5582 12.7944 60.5582H11.1587V63.0788ZM21.6724 69.1491C20.9002 69.1491 20.2323 68.9851 19.6689 68.657C19.1087 68.3255 18.6762 67.8648 18.3713 67.2749C18.0663 66.6816 17.9139 65.9938 17.9139 65.2116C17.9139 64.4228 18.0663 63.7334 18.3713 63.1435C18.6762 62.5502 19.1087 62.0895 19.6689 61.7614C20.2323 61.4299 20.9002 61.2642 21.6724 61.2642C22.4447 61.2642 23.1109 61.4299 23.671 61.7614C24.2344 62.0895 24.6686 62.5502 24.9735 63.1435C25.2785 63.7334 25.4309 64.4228 25.4309 65.2116C25.4309 65.9938 25.2785 66.6816 24.9735 67.2749C24.6686 67.8648 24.2344 68.3255 23.671 68.657C23.1109 68.9851 22.4447 69.1491 21.6724 69.1491ZM21.6824 67.5085C22.0337 67.5085 22.327 67.4091 22.5623 67.2102C22.7976 67.008 22.975 66.733 23.0943 66.3849C23.2169 66.0369 23.2782 65.6409 23.2782 65.1967C23.2782 64.7526 23.2169 64.3565 23.0943 64.0085C22.975 63.6605 22.7976 63.3854 22.5623 63.1832C22.327 62.9811 22.0337 62.88 21.6824 62.88C21.3277 62.88 21.0294 62.9811 20.7875 63.1832C20.5488 63.3854 20.3682 63.6605 20.2456 64.0085C20.1262 64.3565 20.0666 64.7526 20.0666 65.1967C20.0666 65.6409 20.1262 66.0369 20.2456 66.3849C20.3682 66.733 20.5488 67.008 20.7875 67.2102C21.0294 67.4091 21.3277 67.5085 21.6824 67.5085ZM30.2583 69.1491C29.4861 69.1491 28.8182 68.9851 28.2548 68.657C27.6947 68.3255 27.2621 67.8648 26.9572 67.2749C26.6523 66.6816 26.4998 65.9938 26.4998 65.2116C26.4998 64.4228 26.6523 63.7334 26.9572 63.1435C27.2621 62.5502 27.6947 62.0895 28.2548 61.7614C28.8182 61.4299 29.4861 61.2642 30.2583 61.2642C31.0306 61.2642 31.6968 61.4299 32.2569 61.7614C32.8204 62.0895 33.2546 62.5502 33.5595 63.1435C33.8644 63.7334 34.0169 64.4228 34.0169 65.2116C34.0169 65.9938 33.8644 66.6816 33.5595 67.2749C33.2546 67.8648 32.8204 68.3255 32.2569 68.657C31.6968 68.9851 31.0306 69.1491 30.2583 69.1491ZM30.2683 67.5085C30.6196 67.5085 30.9129 67.4091 31.1483 67.2102C31.3836 67.008 31.5609 66.733 31.6802 66.3849C31.8029 66.0369 31.8642 65.6409 31.8642 65.1967C31.8642 64.7526 31.8029 64.3565 31.6802 64.0085C31.5609 63.6605 31.3836 63.3854 31.1483 63.1832C30.9129 62.9811 30.6196 62.88 30.2683 62.88C29.9136 62.88 29.6154 62.9811 29.3734 63.1832C29.1348 63.3854 28.9541 63.6605 28.8315 64.0085C28.7122 64.3565 28.6525 64.7526 28.6525 65.1967C28.6525 65.6409 28.7122 66.0369 28.8315 66.3849C28.9541 66.733 29.1348 67.008 29.3734 67.2102C29.6154 67.4091 29.9136 67.5085 30.2683 67.5085ZM37.313 66.8026L37.318 64.2621H37.6262L40.0723 61.3636H42.5034L39.2172 65.2017H38.715L37.313 66.8026ZM35.394 69V58.8182H37.5119V69H35.394ZM40.1667 69L37.9196 65.674L39.3315 64.1776L42.6475 69H40.1667ZM43.5424 69V61.3636H45.6603V69H43.5424ZM44.6064 60.3793C44.2915 60.3793 44.0214 60.2749 43.796 60.0661C43.5739 59.8539 43.4629 59.6004 43.4629 59.3054C43.4629 59.0137 43.5739 58.7635 43.796 58.5547C44.0214 58.3426 44.2915 58.2365 44.6064 58.2365C44.9212 58.2365 45.1897 58.3426 45.4118 58.5547C45.6371 58.7635 45.7498 59.0137 45.7498 59.3054C45.7498 59.6004 45.6371 59.8539 45.4118 60.0661C45.1897 60.2749 44.9212 60.3793 44.6064 60.3793ZM50.837 69.1491C50.0515 69.1491 49.3754 68.9901 48.8086 68.6719C48.2451 68.3504 47.811 67.8963 47.506 67.3097C47.2011 66.7197 47.0487 66.022 47.0487 65.2166C47.0487 64.4311 47.2011 63.7417 47.506 63.1484C47.811 62.5552 48.2402 62.0928 48.7937 61.7614C49.3505 61.4299 50.0034 61.2642 50.7525 61.2642C51.2563 61.2642 51.7253 61.3454 52.1594 61.5078C52.5969 61.6669 52.9781 61.9072 53.3029 62.2287C53.631 62.5502 53.8862 62.9545 54.0685 63.4418C54.2508 63.9257 54.342 64.4924 54.342 65.142V65.7237H47.8938V64.4112H52.3484C52.3484 64.1063 52.2821 63.8362 52.1495 63.6009C52.0169 63.3655 51.833 63.1816 51.5977 63.049C51.3656 62.9131 51.0955 62.8452 50.7873 62.8452C50.4658 62.8452 50.1808 62.9197 49.9322 63.0689C49.6869 63.2147 49.4947 63.4119 49.3555 63.6605C49.2163 63.9058 49.145 64.1792 49.1417 64.4808V65.7287C49.1417 66.1065 49.2113 66.433 49.3505 66.7081C49.493 66.9832 49.6935 67.1953 49.9521 67.3445C50.2106 67.4936 50.5172 67.5682 50.8718 67.5682C51.1071 67.5682 51.3226 67.535 51.5181 67.4688C51.7137 67.4025 51.881 67.303 52.0202 67.1705C52.1594 67.0379 52.2655 66.8755 52.3384 66.6832L54.2972 66.8125C54.1978 67.2831 53.994 67.6941 53.6857 68.0455C53.3808 68.3935 52.9864 68.6652 52.5025 68.8608C52.0219 69.053 51.4667 69.1491 50.837 69.1491Z" fill="#6D5253"/>
</svg>
