<svg width="100" height="100" viewBox="0 0 100 100" fill="none" xmlns="http://www.w3.org/2000/svg">
<path d="M66.6666 29.1667H66.7083M14.1666 75H49.9999C58.8405 75 67.3189 71.4881 73.5702 65.2369C79.8214 58.9857 83.3333 50.5072 83.3333 41.6667V29.1667M83.3333 29.1667C83.3426 25.6163 82.218 22.1557 80.1232 19.2891C78.0285 16.4226 75.073 14.2998 71.6876 13.2303C68.3021 12.1607 64.6636 12.2001 61.3022 13.3429C57.9407 14.4857 55.032 16.672 52.9999 19.5833L8.33325 83.3333M83.3333 29.1667L91.6666 31.25L83.3333 33.3333M41.6666 75V87.5M58.3333 73.9583V87.5M29.1666 75C34.3046 74.9997 39.3177 73.4164 43.5238 70.4655C47.7298 67.5145 50.9245 63.3393 52.6731 58.508C54.4216 53.6767 54.6392 48.4239 53.296 43.4646C51.9529 38.5053 49.1143 34.0802 45.1666 30.7917" stroke="white" stroke-width="2" stroke-linecap="round" stroke-linejoin="round"/>
</svg>
