<svg width="298" height="206" viewBox="0 0 298 206" fill="none" xmlns="http://www.w3.org/2000/svg">
<path d="M28.1477 73.9993L5.07538 42.1405L13.2859 39.1611L28.1338 61.7267L28.4289 61.6196L25.9575 34.5629L32.9876 32.0118L48.4446 54.4153L48.7571 54.3019L45.6592 27.4135L53.8697 24.4341L56.598 63.6752L49.2728 66.3334L34.0687 45.5472L33.791 45.6479L35.4729 71.3411L28.1477 73.9993Z" fill="#FF9F0F"/>
<path d="M87.9349 56.6953C85.0732 57.2641 82.4949 57.1741 80.1997 56.4254C77.9143 55.6621 76.0038 54.3223 74.4681 52.4059C72.9301 50.4775 71.8695 48.0462 71.2863 45.1121C70.7175 42.2505 70.7738 39.6286 71.455 37.2465C72.1363 34.8644 73.3652 32.8692 75.1416 31.261C76.9301 29.6504 79.1888 28.5739 81.9176 28.0315C83.7529 27.6667 85.5202 27.623 87.2196 27.9002C88.9286 28.163 90.4911 28.7624 91.9072 29.6984C93.3354 30.6321 94.5579 31.9203 95.5748 33.5633C96.5893 35.1942 97.3317 37.1929 97.8021 39.5595L98.2233 41.6785L74.7325 46.3475L73.7821 41.5661L90.0101 38.3406C89.7893 37.2298 89.3523 36.2937 88.6989 35.5324C88.0455 34.7711 87.2422 34.2342 86.2889 33.9216C85.3453 33.5945 84.312 33.5426 83.1891 33.7658C82.0179 33.9986 81.0335 34.4767 80.2359 35.2C79.448 35.9089 78.8905 36.7665 78.5634 37.7729C78.2338 38.7672 78.1722 39.8149 78.3785 40.9161L79.2821 45.4621C79.5557 46.8386 80.0456 47.9775 80.752 48.8789C81.4704 49.7779 82.3544 50.4054 83.4042 50.7616C84.454 51.1177 85.6249 51.1674 86.9169 50.9106C87.7742 50.7402 88.535 50.4635 89.1994 50.0804C89.8638 49.6973 90.4016 49.2139 90.8127 48.6301C91.2238 48.0464 91.4926 47.3779 91.619 46.6248L98.8486 45.6774C98.8272 47.4639 98.3822 49.1088 97.5137 50.6118C96.6548 52.1004 95.4147 53.3761 93.7935 54.4389C92.1819 55.4872 90.229 56.2394 87.9349 56.6953Z" fill="#FF9F0F"/>
<path d="M114.887 13.9794L118.889 51.5853L111.066 52.4176L107.065 14.8118L114.887 13.9794Z" fill="#FF9F0F"/>
<path d="M143.283 50.8082C140.378 50.8588 137.868 50.2868 135.755 49.0924C133.653 47.8854 132.023 46.19 130.864 44.0063C129.718 41.8223 129.12 39.2963 129.07 36.4284C129.019 33.5235 129.535 30.9659 130.617 28.7554C131.711 26.5324 133.288 24.7874 135.346 23.5203C137.405 22.2409 139.868 21.5763 142.736 21.5263C145.21 21.4833 147.384 21.8948 149.258 22.761C151.133 23.6272 152.626 24.8632 153.737 26.4691C154.849 28.075 155.479 29.9725 155.628 32.1615L148.205 32.2907C147.972 30.8789 147.398 29.75 146.484 28.904C145.583 28.0455 144.412 27.6288 142.972 27.6538C141.753 27.6751 140.694 28.0259 139.795 28.7065C138.908 29.3745 138.223 30.3406 137.74 31.6049C137.257 32.8691 137.032 34.3937 137.063 36.1784C137.094 37.9878 137.367 39.5221 137.881 40.7814C138.408 42.0404 139.133 42.9943 140.055 43.6431C140.978 44.2919 142.048 44.6057 143.267 44.5845C144.165 44.5689 144.968 44.3702 145.676 43.9885C146.395 43.6066 146.983 43.0608 147.439 42.3511C147.906 41.6288 148.205 40.7679 148.336 39.7683L155.758 39.6391C155.672 41.8076 155.115 43.7257 154.085 45.3935C153.067 47.0488 151.643 48.3541 149.813 49.3094C147.983 50.2647 145.806 50.7643 143.283 50.8082Z" fill="#FF9F0F"/>
<path d="M178.489 52.253C175.634 51.972 173.225 51.1226 171.262 49.7047C169.312 48.2758 167.88 46.4155 166.968 44.1239C166.057 41.8199 165.743 39.2223 166.028 36.331C166.315 33.4151 167.129 30.9223 168.471 28.8525C169.814 26.7704 171.58 25.2248 173.77 24.2157C175.973 23.1955 178.502 22.8259 181.357 23.1068C184.212 23.3878 186.614 24.2427 188.564 25.6716C190.527 27.0895 191.964 28.9504 192.876 31.2543C193.788 33.546 194.101 36.1498 193.814 39.0656C193.529 41.9569 192.716 44.4436 191.373 46.5257C190.031 48.5955 188.258 50.1405 186.055 51.1607C183.865 52.1698 181.343 52.5339 178.489 52.253ZM179.122 46.1921C180.421 46.3199 181.541 46.0591 182.483 45.4096C183.427 44.7479 184.182 43.7955 184.75 42.5525C185.33 41.3108 185.701 39.869 185.862 38.2273C186.024 36.5856 185.941 35.0993 185.614 33.7683C185.3 32.4385 184.745 31.3571 183.948 30.5242C183.152 29.6912 182.105 29.2108 180.806 29.083C179.495 28.954 178.356 29.2192 177.388 29.8785C176.432 30.539 175.664 31.4901 175.084 32.7319C174.517 33.9749 174.152 35.4173 173.991 37.059C173.829 38.7006 173.905 40.1864 174.22 41.5162C174.547 42.8472 175.114 43.9298 175.923 44.7639C176.745 45.587 177.811 46.0631 179.122 46.1921Z" fill="#FF9F0F"/>
<path d="M201.819 54.1717L208.575 26.6244L215.857 28.4102L214.665 33.2704L214.988 33.3496C215.957 31.8762 217.226 30.8375 218.794 30.2333C220.362 29.6291 222.078 29.5558 223.943 30.0132C225.833 30.4765 227.325 31.3432 228.42 32.6132C229.519 33.8713 230.093 35.3556 230.142 37.0663L230.429 37.1367C231.378 35.6963 232.704 34.6841 234.406 34.1002C236.123 33.5073 237.992 33.4587 240.013 33.9542C242.583 34.5847 244.469 35.9154 245.669 37.9463C246.885 39.9682 247.126 42.4737 246.393 45.4628L241.849 63.9891L234.227 62.1197L238.401 45.0999C238.776 43.5695 238.651 42.322 238.026 41.3574C237.401 40.3928 236.478 39.761 235.259 39.4619C233.872 39.1217 232.681 39.2988 231.687 39.9929C230.696 40.6751 230.024 41.7336 229.672 43.1684L225.547 59.9908L218.14 58.1743L222.353 40.9931C222.685 39.642 222.56 38.4707 221.979 37.479C221.411 36.4903 220.499 35.8419 219.243 35.5341C218.394 35.3259 217.576 35.3534 216.789 35.6167C216.017 35.8709 215.34 36.3323 214.758 37.0007C214.178 37.6572 213.764 38.4936 213.515 39.5099L209.459 56.0454L201.819 54.1717Z" fill="#FF9F0F"/>
<path d="M263.93 73.2107C261.223 72.1206 259.115 70.6342 257.603 68.7514C256.108 66.8619 255.243 64.6949 255.006 62.2506C254.774 59.7948 255.217 57.1795 256.335 54.4047C257.425 51.6984 258.907 49.5348 260.781 47.9139C262.655 46.2931 264.775 45.2958 267.142 44.922C269.52 44.5528 272 44.8879 274.581 45.9274C276.316 46.6265 277.819 47.5571 279.09 48.7192C280.377 49.8745 281.356 51.2313 282.029 52.7897C282.713 54.3527 283.032 56.1 282.984 58.0316C282.94 59.9517 282.468 62.0309 281.566 64.269L280.759 66.2731L258.543 57.3247L260.364 52.8028L275.712 58.9845C276.135 57.934 276.281 56.9113 276.151 55.9166C276.021 54.9218 275.642 54.0328 275.016 53.2495C274.405 52.4593 273.569 51.8504 272.507 51.4226C271.399 50.9765 270.313 50.8378 269.25 51.0067C268.203 51.1688 267.267 51.5815 266.442 52.2447C265.622 52.8965 264.997 53.7397 264.567 54.7743L262.835 59.0736C262.311 60.3753 262.098 61.5967 262.196 62.7377C262.305 63.8832 262.701 64.8923 263.385 65.7649C264.069 66.6376 265.022 67.3199 266.243 67.8121C267.054 68.1387 267.842 68.3234 268.608 68.3664C269.374 68.4094 270.089 68.2991 270.752 68.0355C271.416 67.772 272.006 67.3596 272.524 66.7985L279.094 69.9622C278.098 71.4457 276.825 72.5788 275.276 73.3614C273.742 74.1373 272.006 74.5263 270.068 74.5285C268.145 74.5239 266.099 74.0846 263.93 73.2107Z" fill="#FF9F0F"/>
<path d="M144.216 104.545V108.182H133.705V104.545H144.216ZM136.091 100.364H140.932V116.636C140.932 117.083 141 117.432 141.136 117.682C141.273 117.924 141.462 118.095 141.705 118.193C141.955 118.292 142.242 118.341 142.568 118.341C142.795 118.341 143.023 118.322 143.25 118.284C143.477 118.239 143.652 118.205 143.773 118.182L144.534 121.784C144.292 121.86 143.951 121.947 143.511 122.045C143.072 122.152 142.538 122.216 141.909 122.239C140.742 122.284 139.72 122.129 138.841 121.773C137.97 121.417 137.292 120.864 136.807 120.114C136.322 119.364 136.083 118.417 136.091 117.273V100.364ZM155.068 122.341C153.303 122.341 151.777 121.966 150.489 121.216C149.208 120.458 148.22 119.405 147.523 118.057C146.826 116.701 146.477 115.129 146.477 113.341C146.477 111.538 146.826 109.962 147.523 108.614C148.22 107.258 149.208 106.205 150.489 105.455C151.777 104.697 153.303 104.318 155.068 104.318C156.833 104.318 158.356 104.697 159.636 105.455C160.924 106.205 161.917 107.258 162.614 108.614C163.311 109.962 163.659 111.538 163.659 113.341C163.659 115.129 163.311 116.701 162.614 118.057C161.917 119.405 160.924 120.458 159.636 121.216C158.356 121.966 156.833 122.341 155.068 122.341ZM155.091 118.591C155.894 118.591 156.564 118.364 157.102 117.909C157.64 117.447 158.045 116.818 158.318 116.023C158.598 115.227 158.739 114.322 158.739 113.307C158.739 112.292 158.598 111.386 158.318 110.591C158.045 109.795 157.64 109.167 157.102 108.705C156.564 108.242 155.894 108.011 155.091 108.011C154.28 108.011 153.598 108.242 153.045 108.705C152.5 109.167 152.087 109.795 151.807 110.591C151.534 111.386 151.398 112.292 151.398 113.307C151.398 114.322 151.534 115.227 151.807 116.023C152.087 116.818 152.5 117.447 153.045 117.909C153.598 118.364 154.28 118.591 155.091 118.591Z" fill="#FF9F0F"/>
<path d="M63.9077 195V161.545H77.3026C79.7637 161.545 81.8165 161.91 83.4609 162.64C85.1054 163.37 86.3414 164.382 87.169 165.678C87.9967 166.963 88.4105 168.444 88.4105 170.121C88.4105 171.428 88.1491 172.577 87.6264 173.568C87.1037 174.548 86.3849 175.354 85.4702 175.986C84.5663 176.607 83.5317 177.048 82.3665 177.309V177.636C83.6406 177.69 84.8331 178.049 85.9439 178.714C87.0656 179.378 87.9749 180.309 88.6719 181.507C89.3688 182.694 89.7173 184.11 89.7173 185.754C89.7173 187.529 89.2763 189.114 88.3942 190.508C87.523 191.891 86.2325 192.985 84.5227 193.791C82.813 194.597 80.7057 195 78.201 195H63.9077ZM70.9808 189.217H76.7472C78.7183 189.217 80.1558 188.842 81.0597 188.09C81.9635 187.328 82.4155 186.315 82.4155 185.052C82.4155 184.126 82.1922 183.309 81.7457 182.602C81.2992 181.894 80.6622 181.338 79.8345 180.935C79.0178 180.532 78.0431 180.331 76.9105 180.331H70.9808V189.217ZM70.9808 175.545H76.2244C77.1937 175.545 78.054 175.376 78.8054 175.038C79.5677 174.69 80.1667 174.2 80.6023 173.568C81.0488 172.937 81.272 172.18 81.272 171.298C81.272 170.089 80.8419 169.114 79.9815 168.374C79.1321 167.633 77.9233 167.263 76.3551 167.263H70.9808V175.545ZM125.063 178.273C125.063 181.921 124.371 185.025 122.988 187.584C121.616 190.143 119.743 192.098 117.369 193.448C115.006 194.788 112.348 195.457 109.397 195.457C106.424 195.457 103.756 194.782 101.393 193.432C99.0298 192.081 97.1621 190.127 95.79 187.567C94.4178 185.008 93.7317 181.91 93.7317 178.273C93.7317 174.625 94.4178 171.521 95.79 168.962C97.1621 166.402 99.0298 164.453 101.393 163.114C103.756 161.763 106.424 161.088 109.397 161.088C112.348 161.088 115.006 161.763 117.369 163.114C119.743 164.453 121.616 166.402 122.988 168.962C124.371 171.521 125.063 174.625 125.063 178.273ZM117.892 178.273C117.892 175.91 117.538 173.917 116.83 172.294C116.133 170.671 115.147 169.441 113.873 168.602C112.599 167.764 111.107 167.344 109.397 167.344C107.687 167.344 106.195 167.764 104.921 168.602C103.647 169.441 102.656 170.671 101.948 172.294C101.251 173.917 100.903 175.91 100.903 178.273C100.903 180.636 101.251 182.629 101.948 184.251C102.656 185.874 103.647 187.105 104.921 187.943C106.195 188.782 107.687 189.201 109.397 189.201C111.107 189.201 112.599 188.782 113.873 187.943C115.147 187.105 116.133 185.874 116.83 184.251C117.538 182.629 117.892 180.636 117.892 178.273ZM161.045 178.273C161.045 181.921 160.354 185.025 158.971 187.584C157.598 190.143 155.725 192.098 153.351 193.448C150.988 194.788 148.331 195.457 145.38 195.457C142.407 195.457 139.739 194.782 137.375 193.432C135.012 192.081 133.145 190.127 131.772 187.567C130.4 185.008 129.714 181.91 129.714 178.273C129.714 174.625 130.4 171.521 131.772 168.962C133.145 166.402 135.012 164.453 137.375 163.114C139.739 161.763 142.407 161.088 145.38 161.088C148.331 161.088 150.988 161.763 153.351 163.114C155.725 164.453 157.598 166.402 158.971 168.962C160.354 171.521 161.045 174.625 161.045 178.273ZM153.874 178.273C153.874 175.91 153.52 173.917 152.812 172.294C152.115 170.671 151.13 169.441 149.855 168.602C148.581 167.764 147.089 167.344 145.38 167.344C143.67 167.344 142.178 167.764 140.904 168.602C139.63 169.441 138.639 170.671 137.931 172.294C137.234 173.917 136.885 175.91 136.885 178.273C136.885 180.636 137.234 182.629 137.931 184.251C138.639 185.874 139.63 187.105 140.904 187.943C142.178 188.782 143.67 189.201 145.38 189.201C147.089 189.201 148.581 188.782 149.855 187.943C151.13 187.105 152.115 185.874 152.812 184.251C153.52 182.629 153.874 180.636 153.874 178.273ZM166.285 195V161.545H173.358V176.296H173.799L185.838 161.545H194.316L181.901 176.525L194.463 195H186.001L176.837 181.246L173.358 185.493V195H166.285ZM205.073 161.545V195H197.999V161.545H205.073ZM210.892 195V161.545H233.435V167.377H217.965V175.349H232.275V181.18H217.965V189.168H233.5V195H210.892Z" fill="#6D5253"/>
</svg>
